<?xml version="1.0" encoding="UTF-8" standalone="no"?>
<!-- Created with Inkscape (http://www.inkscape.org/) -->

<svg
   xmlns:dc="http://purl.org/dc/elements/1.1/"
   xmlns:cc="http://creativecommons.org/ns#"
   xmlns:rdf="http://www.w3.org/1999/02/22-rdf-syntax-ns#"
   xmlns:svg="http://www.w3.org/2000/svg"
   xmlns="http://www.w3.org/2000/svg"
   xmlns:sodipodi="http://sodipodi.sourceforge.net/DTD/sodipodi-0.dtd"
   xmlns:inkscape="http://www.inkscape.org/namespaces/inkscape"
   width="32"
   height="32.000011"
   viewBox="0 0 8.4666664 8.46667"
   version="1.1"
   id="svg8"
   inkscape:version="0.92.4 (5da689c313, 2019-01-14)"
   sodipodi:docname="test.svg">
  <defs
     id="defs2" />
  <sodipodi:namedview
     id="base"
     pagecolor="#ffffff"
     bordercolor="#666666"
     borderopacity="1.0"
     inkscape:pageopacity="0.0"
     inkscape:pageshadow="2"
     inkscape:zoom="2.2828301"
     inkscape:cx="9.1869703"
     inkscape:cy="90.78179"
     inkscape:document-units="px"
     inkscape:current-layer="layer1"
     showgrid="false"
     inkscape:object-paths="true"
     inkscape:snap-others="true"
     inkscape:window-width="1920"
     inkscape:window-height="1017"
     inkscape:window-x="-8"
     inkscape:window-y="-8"
     inkscape:window-maximized="1"
     units="px"
     fit-margin-top="0"
     fit-margin-left="0"
     fit-margin-right="0"
     fit-margin-bottom="0" />
  <metadata
     id="metadata5">
    <rdf:RDF>
      <cc:Work
         rdf:about="">
        <dc:format>image/svg+xml</dc:format>
        <dc:type
           rdf:resource="http://purl.org/dc/dcmitype/StillImage" />
        <dc:title></dc:title>
      </cc:Work>
    </rdf:RDF>
  </metadata>
  <g
     inkscape:label="Layer 1"
     inkscape:groupmode="layer"
     id="layer1"
     transform="translate(-84.127811,-132.65125)">
    <path
       style="color:#000000;font-style:normal;font-variant:normal;font-weight:normal;font-stretch:normal;font-size:medium;line-height:normal;font-family:sans-serif;font-variant-ligatures:normal;font-variant-position:normal;font-variant-caps:normal;font-variant-numeric:normal;font-variant-alternates:normal;font-feature-settings:normal;text-indent:0;text-align:start;text-decoration:none;text-decoration-line:none;text-decoration-style:solid;text-decoration-color:#000000;letter-spacing:normal;word-spacing:normal;text-transform:none;writing-mode:lr-tb;direction:ltr;text-orientation:mixed;dominant-baseline:auto;baseline-shift:baseline;text-anchor:start;white-space:normal;shape-padding:0;clip-rule:nonzero;display:inline;overflow:visible;visibility:visible;opacity:1;isolation:auto;mix-blend-mode:normal;color-interpolation:sRGB;color-interpolation-filters:linearRGB;solid-color:#000000;solid-opacity:1;vector-effect:none;fill:#15835b;fill-opacity:1;fill-rule:nonzero;stroke:none;stroke-width:0.63205856;stroke-linecap:butt;stroke-linejoin:miter;stroke-miterlimit:4;stroke-dasharray:none;stroke-dashoffset:0;stroke-opacity:1;color-rendering:auto;image-rendering:auto;shape-rendering:auto;text-rendering:auto;enable-background:accumulate"
       d="m 88.374552,132.65133 v 0.6323 c 1.9865,0.007 3.587981,1.61392 3.587981,3.60326 0,1.29588 -0.679688,2.42916 -1.702603,3.06389 v -5.67342 h -1.044613 v 2.11168 h -1.88538 v -0.82947 -2.12668 -0.009 -0.64548 c -1.837495,0.4619 -3.202126,2.12863 -3.202126,4.1084 0,2.27167 1.796679,4.13111 4.042889,4.23111 v -0.52363 -0.10916 c -1.903821,-0.0986 -3.410973,-1.66838 -3.410973,-3.59832 0,-1.21962 0.602039,-2.29521 1.525594,-2.94677 v 5.28967 h 1.044616 v -1.79556 h 0.912745 0.436889 0.535746 v 0.6109 2.34333 0.64736 c 1.92619,-0.39645 3.379161,-2.10611 3.379161,-4.14893 0,-2.33102 -1.891873,-4.22824 -4.219926,-4.23556 z m -1.228658,0.84191 c -0.0078,0.003 -0.01573,0.006 -0.02354,0.008 0.0078,-0.003 0.0157,-0.006 0.02354,-0.008 z m -0.208232,0.0818 c -0.0055,0.002 -0.01112,0.005 -0.01666,0.007 0.0055,-0.002 0.01111,-0.005 0.01666,-0.007 z m -0.06038,0.0266 c -0.0076,0.003 -0.01517,0.007 -0.02271,0.0102 0.0075,-0.003 0.01514,-0.007 0.02271,-0.0102 z m -0.06313,0.0293 c -0.0083,0.004 -0.01666,0.008 -0.02493,0.0118 0.0083,-0.004 0.01662,-0.008 0.02493,-0.0118 z m -0.07534,0.0368 c -0.004,0.002 -0.0081,0.004 -0.01206,0.006 0.004,-0.002 0.0081,-0.004 0.01206,-0.006 z m -0.06177,0.0319 c -0.0049,0.003 -0.0099,0.005 -0.01487,0.008 0.0049,-0.003 0.0099,-0.005 0.01487,-0.008 z m -0.06513,0.0353 c -0.0039,0.002 -0.0078,0.004 -0.01173,0.006 0.0039,-0.002 0.0078,-0.004 0.01173,-0.006 z m -0.06254,0.0356 c -0.0038,0.002 -0.0076,0.004 -0.01136,0.007 0.0038,-0.002 0.0076,-0.004 0.01136,-0.007 z m -0.06186,0.0368 c -0.0035,0.002 -0.0071,0.004 -0.01068,0.006 0.0036,-0.002 0.0071,-0.004 0.01068,-0.006 z m -0.05717,0.0356 c -0.005,0.003 -0.01009,0.006 -0.01509,0.01 0.005,-0.003 0.01006,-0.006 0.01509,-0.01 z m -0.06023,0.0391 c -0.0047,0.003 -0.0095,0.006 -0.01419,0.009 0.0047,-0.003 0.0095,-0.006 0.01419,-0.009 z m -0.06004,0.0407 c -0.0042,0.003 -0.0085,0.006 -0.01268,0.009 0.0042,-0.003 0.0085,-0.006 0.01268,-0.009 z m 3.943818,6.0318 c -0.0096,0.006 -0.01928,0.0117 -0.02894,0.0176 0.0097,-0.006 0.01934,-0.0116 0.02894,-0.0176 z m -0.06109,0.0369 c -0.01,0.006 -0.02002,0.0117 -0.03005,0.0174 0.01003,-0.006 0.02009,-0.0115 0.03005,-0.0174 z m -0.06347,0.0366 c -0.0098,0.006 -0.01965,0.0109 -0.0295,0.0164 0.0099,-0.005 0.0197,-0.0108 0.0295,-0.0164 z m -0.06328,0.0348 c -0.0098,0.005 -0.01958,0.0104 -0.0294,0.0156 0.0098,-0.005 0.01964,-0.0103 0.0294,-0.0156 z m -0.06476,0.034 c -0.0095,0.005 -0.01897,0.01 -0.02848,0.0143 0.0095,-0.005 0.01902,-0.01 0.02848,-0.0143 z m -0.06615,0.0329 c -0.0095,0.005 -0.01901,0.009 -0.02854,0.0137 0.0095,-0.005 0.01905,-0.009 0.02854,-0.0137 z m -0.06405,0.0303 c -0.01,0.005 -0.02003,0.009 -0.03008,0.0137 0.01006,-0.005 0.02008,-0.009 0.03008,-0.0137 z m -0.06998,0.0313 c -0.0085,0.004 -0.0169,0.007 -0.02539,0.011 0.0085,-0.004 0.01694,-0.007 0.02539,-0.011 z m -0.06594,0.0279 c -0.0098,0.004 -0.01955,0.008 -0.02937,0.012 0.0098,-0.004 0.01959,-0.008 0.02937,-0.012 z m -0.06612,0.0265 c -0.01045,0.004 -0.02088,0.008 -0.03138,0.0121 0.01049,-0.004 0.02094,-0.008 0.03138,-0.0121 z m -0.06973,0.0263 c -0.01007,0.004 -0.02012,0.007 -0.03024,0.011 0.01011,-0.004 0.02016,-0.007 0.03024,-0.011 z m -0.07183,0.0254 c -0.0091,0.003 -0.01815,0.006 -0.02728,0.009 0.0091,-0.003 0.01818,-0.006 0.02728,-0.009 z m -0.07133,0.0235 c -0.0088,0.003 -0.01753,0.006 -0.02635,0.008 0.0088,-0.003 0.01756,-0.006 0.02635,-0.008 z m -0.0747,0.0228 c -0.0074,0.002 -0.01476,0.004 -0.02218,0.007 0.0074,-0.002 0.01478,-0.004 0.02218,-0.007 z m -0.06421,0.0182 c -0.01049,0.003 -0.02092,0.006 -0.03144,0.009 0.01052,-0.003 0.02096,-0.006 0.03144,-0.009 z"
       id="path815"
       inkscape:connector-curvature="0" />
  </g>
</svg>
